<svg width="20" height="20" viewBox="0 0 20 20" fill="none" xmlns="http://www.w3.org/2000/svg">
<circle cx="10" cy="9.70874" r="9.70874" fill="#151875"/>
<path d="M14.2446 7.40725C14.2393 7.01508 14.1659 6.62681 14.0276 6.25981C13.9077 5.95024 13.7245 5.6691 13.4897 5.43435C13.255 5.1996 12.9738 5.01639 12.6642 4.89644C12.302 4.76045 11.9192 4.68691 11.5323 4.67897C11.0342 4.6567 10.8763 4.65049 9.61182 4.65049C8.34735 4.65049 8.18528 4.65049 7.69079 4.67897C7.30407 4.68697 6.92152 4.76051 6.55939 4.89644C6.24978 5.01631 5.9686 5.19948 5.73383 5.43425C5.49907 5.66901 5.31589 5.9502 5.19603 6.25981C5.05976 6.62182 4.98638 7.00446 4.97907 7.3912C4.9568 7.88984 4.95007 8.04777 4.95007 9.31224C4.95007 10.5767 4.95007 10.7383 4.97907 11.2333C4.98684 11.6206 5.05985 12.0027 5.19603 12.3657C5.31609 12.6752 5.4994 12.9563 5.73425 13.191C5.96909 13.4256 6.2503 13.6087 6.55991 13.7285C6.92104 13.87 7.30366 13.9488 7.6913 13.9616C8.18994 13.9838 8.34787 13.9906 9.61234 13.9906C10.8768 13.9906 11.0389 13.9906 11.5334 13.9616C11.9202 13.9539 12.303 13.8806 12.6653 13.7446C12.9748 13.6245 13.2558 13.4413 13.4906 13.2065C13.7253 12.9718 13.9086 12.6907 14.0286 12.3812C14.1648 12.0188 14.2378 11.6366 14.2456 11.2488C14.2679 10.7507 14.2746 10.5928 14.2746 9.32777C14.2736 8.06331 14.2736 7.90279 14.2446 7.40725ZM9.60871 11.7034C8.28625 11.7034 7.21493 10.6321 7.21493 9.30965C7.21493 7.98719 8.28625 6.91586 9.60871 6.91586C10.2436 6.91586 10.8525 7.16806 11.3014 7.61699C11.7503 8.06591 12.0025 8.67478 12.0025 9.30965C12.0025 9.94452 11.7503 10.5534 11.3014 11.0023C10.8525 11.4512 10.2436 11.7034 9.60871 11.7034ZM12.0978 7.38551C11.7886 7.38551 11.5396 7.13593 11.5396 6.82732C11.5396 6.75405 11.554 6.6815 11.5821 6.61381C11.6101 6.54612 11.6512 6.48461 11.703 6.4328C11.7548 6.38099 11.8163 6.3399 11.884 6.31186C11.9517 6.28382 12.0242 6.26939 12.0975 6.26939C12.1708 6.26939 12.2433 6.28382 12.311 6.31186C12.3787 6.3399 12.4402 6.38099 12.492 6.4328C12.5438 6.48461 12.5849 6.54612 12.613 6.61381C12.641 6.6815 12.6554 6.75405 12.6554 6.82732C12.6554 7.13593 12.4059 7.38551 12.0978 7.38551Z" fill="white"/>
<path d="M9.60878 10.8643C10.4676 10.8643 11.1637 10.1682 11.1637 9.30938C11.1637 8.45061 10.4676 7.75443 9.60878 7.75443C8.75001 7.75443 8.05383 8.45061 8.05383 9.30938C8.05383 10.1682 8.75001 10.8643 9.60878 10.8643Z" fill="white"/>
</svg>
