<svg width="10" height="6" viewBox="0 0 10 6" fill="none" xmlns="http://www.w3.org/2000/svg">
<path d="M10 6H9V3.5C9 3.1717 8.93534 2.84661 8.8097 2.54329C8.68406 2.23998 8.49991 1.96438 8.26777 1.73223C8.03562 1.50009 7.76002 1.31594 7.45671 1.1903C7.15339 1.06466 6.8283 1 6.5 1H3.5C2.83696 1 2.20107 1.26339 1.73223 1.73223C1.26339 2.20107 1 2.83696 1 3.5V6H0V3.5C0 2.57174 0.368749 1.6815 1.02513 1.02513C1.6815 0.368749 2.57174 0 3.5 0H6.5C7.42826 0 8.3185 0.368749 8.97487 1.02513C9.63125 1.6815 10 2.57174 10 3.5V6Z" fill="white"/>
</svg>
