<svg width="20" height="20" viewBox="0 0 20 20" fill="none" xmlns="http://www.w3.org/2000/svg">
<circle cx="10.2913" cy="9.70874" r="9.70874" fill="#151875"/>
<path d="M15.9321 5.66304C15.4997 5.85463 15.0352 5.98408 14.547 6.04259C15.0508 5.74112 15.4277 5.26665 15.6074 4.7077C15.1341 4.98886 14.616 5.18677 14.0758 5.29282C13.7125 4.90492 13.2313 4.64781 12.7069 4.56141C12.1825 4.47502 11.6442 4.56417 11.1757 4.81502C10.7072 5.06587 10.3346 5.4644 10.1157 5.94871C9.89688 6.43303 9.84407 6.97605 9.96548 7.49346C9.00635 7.44531 8.06807 7.19601 7.21152 6.76176C6.35498 6.32751 5.59931 5.71801 4.99357 4.97282C4.78645 5.3301 4.66735 5.74434 4.66735 6.1855C4.66712 6.58265 4.76492 6.97372 4.95208 7.324C5.13924 7.67429 5.40996 7.97297 5.74023 8.19353C5.35721 8.18134 4.98263 8.07784 4.64768 7.89165V7.92272C4.64764 8.47974 4.84032 9.01961 5.19301 9.45074C5.54571 9.88187 6.03671 10.1777 6.58269 10.288C6.22737 10.3842 5.85484 10.3984 5.49324 10.3295C5.64729 10.8087 5.94735 11.2278 6.35143 11.5281C6.7555 11.8284 7.24336 11.9948 7.74671 12.004C6.89225 12.6748 5.837 13.0386 4.75072 13.037C4.5583 13.0371 4.36603 13.0258 4.17493 13.0034C5.27757 13.7123 6.56112 14.0886 7.87201 14.0871C12.3096 14.0871 14.7354 10.4118 14.7354 7.22421C14.7354 7.12065 14.7329 7.01605 14.7282 6.91249C15.2001 6.57125 15.6074 6.14868 15.931 5.6646L15.9321 5.66304Z" fill="white"/>
</svg>
